<?xml version="1.0" encoding="UTF-8"?>
<svg id="_图层_1" data-name="图层 1" xmlns="http://www.w3.org/2000/svg" xmlns:xlink="http://www.w3.org/1999/xlink" viewBox="0 0 7506.66 1045.18">
  <defs>
    <style>
      .cls-1 {
        fill: #7dc8e5;
      }

      .cls-2 {
        fill: #fff;
      }

      .cls-3 {
        fill: url(#_未命名的渐变_6);
      }

      .cls-4 {
        fill: #7ecae8;
        stroke: #7ecae8;
        stroke-miterlimit: 10;
        stroke-width: .75px;
      }

      .cls-5 {
        fill: url(#_未命名的渐变_2);
      }
    </style>
    <linearGradient id="_未命名的渐变_2" data-name="未命名的渐变 2" x1="4106.66" y1="515.02" x2="7506.66" y2="515.02" gradientUnits="userSpaceOnUse">
      <stop offset="0" stop-color="#94f4e5"/>
      <stop offset=".95" stop-color="#38bef7"/>
    </linearGradient>
    <linearGradient id="_未命名的渐变_6" data-name="未命名的渐变 6" x1="454.93" y1="409.75" x2="610.19" y2="565.01" gradientUnits="userSpaceOnUse">
      <stop offset="0" stop-color="#ff7bac"/>
      <stop offset=".22" stop-color="#ff7bac" stop-opacity=".76"/>
      <stop offset=".6" stop-color="#ff7bac" stop-opacity=".36"/>
      <stop offset=".87" stop-color="#ff7bac" stop-opacity=".1"/>
      <stop offset="1" stop-color="#ff7bac" stop-opacity="0"/>
    </linearGradient>
  </defs>
  <path class="cls-5" d="M7506.66,245v342.31c0,131.23-225.98,237.61-504.73,237.61h-2855.39c-22.03,0-39.88-17.85-39.88-39.88v-342.31c0-131.23,225.98-237.61,504.73-237.61h2855.39c22.03,0,39.88,17.85,39.88,39.88Z"/>
  <g>
    <g>
      <path class="cls-1" d="M824.32,266.78h119.33c-15.77-40.47-37.6-78.31-64.75-112.21-25-31.52-54.41-59.28-87.32-82.42-31.81-22.13-66.68-39.48-103.51-51.53-36.21-11.88-73.86-18.82-111.93-20.63,53.84,24.04,102.69,57.96,144.03,100,46.16,47.57,81.67,104.43,104.16,166.79Z"/>
      <path class="cls-1" d="M743.28,749.69c-52.38,44.33-119.09,68.1-187.69,66.88-34.51-.2-68.63-7.41-100.28-21.18-34.05-14.57-64.86-35.77-90.65-62.35-28.1-29.3-50.11-63.89-64.75-101.76-17.81-43.66-26.56-90.5-25.72-137.65-.57-42.06,5.87-83.92,19.06-123.86,11.87-35.49,29.94-68.6,53.38-97.78,22.12-27.36,49.44-50.06,80.39-66.79,31.15-16.8,65.21-27.51,100.37-31.54-15.74-9.18-32.59-16.3-50.14-21.18-16.81-4.69-34.17-7.09-51.62-7.12-35.73-.06-70.97,8.31-102.87,24.42-33.16,16.73-62.49,40.17-86.12,68.82-26.13,31.75-46.4,67.9-59.85,106.75-15.53,44.84-23.14,92.05-22.48,139.5-1.04,63.65,10.08,126.91,32.75,186.4,19.87,51.65,49.84,98.83,88.16,138.76,36.68,37.59,80.79,67.14,129.51,86.77,49.59,20.24,102.68,30.52,156.24,30.25,41.4-.06,82.55-6.3,122.11-18.5,39.64-11.98,77.12-30.21,111.01-54.02,34.63-24.37,65.22-54.02,90.65-87.88,27.6-36.91,49.69-77.64,65.59-120.9l-99.17-88.9c-18.5,84.36-54.45,148.66-107.86,192.87Z"/>
      <path class="cls-1" d="M197.5,766.62c-25.21-39.4-44.51-82.28-57.26-127.29-14.1-50.2-21.01-102.15-20.54-154.3-.53-50.93,7.51-101.59,23.77-149.86,14.34-43.13,36.58-83.22,65.59-118.22,26.81-32.17,59.81-58.62,97.04-77.8,36.59-18.8,77.18-28.51,118.31-28.31,29.79.12,59.26,6.06,86.77,17.48,29.42,11.99,56.44,29.19,79.74,50.79,25.35,23.45,46.84,50.77,63.64,80.94,18.67,33.38,32.52,69.22,41.16,106.47l97.69-88.71c-29.1-80.31-81.19-150.28-149.77-201.2-32.15-24-67.69-43.08-105.46-56.61C501.71,6.83,463.21.07,424.42.03c-59.49-.76-118.4,11.89-172.34,37-51.51,24.33-97.29,59.29-134.32,102.59-38.13,44.72-67.56,96.17-86.77,151.71C10.13,350.61-.32,413.04.1,475.88c-1.27,64.99,10.07,129.61,33.39,190.28,20.25,51.59,50.39,98.72,88.71,138.76,35.61,36.89,77.97,66.6,124.79,87.51,45.08,20.34,93.4,32.52,142.74,35.98-79.05-33.1-146.12-89.55-192.23-161.79Z"/>
    </g>
    <circle class="cls-3" cx="532.56" cy="487.38" r="109.79"/>
  </g>
  <g>
    <path class="cls-4" d="M1253.38,818.8c-24.84,0-44.02-6.92-57.56-20.74s-20.32-33.71-20.32-59.68v-231.93l32.17,85.49-194.69-280.18c-9.6-13.54-13.69-28.63-12.27-45.29,1.4-16.64,8.17-30.75,20.31-42.32,12.13-11.56,29.48-17.35,52.06-17.35,15.79,0,30.18,3.81,43.17,11.43,12.97,7.62,25.1,20.46,36.4,38.51l118.51,174.37h-30.47l118.5-175.22c11.85-18.05,23.98-30.75,36.4-38.09,12.41-7.33,27.09-11,44.02-11,21.44,0,38.09,5.37,49.94,16.08,11.85,10.73,18.2,24.27,19.05,40.63.85,16.37-4.38,33.01-15.66,49.94l-192.99,278.49,31.32-85.49v231.93c0,53.62-25.96,80.41-77.88,80.41Z"/>
    <path class="cls-4" d="M1683.37,818.8c-23.7,0-41.77-6.22-54.17-18.62-12.42-12.41-18.62-30.75-18.62-55.02v-461.32c0-24.83,6.2-43.87,18.62-57.14,12.41-13.25,28.78-19.89,49.1-19.89,18.05,0,32.17,3.39,42.32,10.16,10.16,6.77,21.44,18.07,33.86,33.86l268.33,335.2h-23.7v-306.42c0-23.7,6.06-41.75,18.2-54.17,12.13-12.41,30.05-18.62,53.75-18.62s41.61,6.22,53.75,18.62c12.13,12.42,18.2,30.47,18.2,54.17v468.94c0,21.45-5.65,38.51-16.93,51.21-11.29,12.7-26.53,19.05-45.71,19.05s-34.28-3.53-45.29-10.58c-11-7.05-22.72-18.2-35.13-33.44l-268.33-336.05h23.7v306.42c0,24.27-6.07,42.61-18.2,55.02-12.14,12.41-30.05,18.62-53.75,18.62Z"/>
    <path class="cls-4" d="M2266.58,818.8c-17.5,0-32.17-4.1-44.02-12.27s-19.19-19.47-22.01-33.86c-2.83-14.39-.29-30.6,7.62-48.67l210.77-453.71c10.16-22.01,22.71-38.09,37.67-48.25,14.95-10.16,32.02-15.24,51.21-15.24s35.98,5.08,50.37,15.24c14.39,10.16,26.94,26.24,37.67,48.25l210.77,453.71c9.02,18.07,12.27,34.43,9.73,49.09-2.54,14.68-9.6,25.96-21.16,33.86-11.57,7.9-25.82,11.85-42.75,11.85-22.58,0-39.93-5.08-52.06-15.24-12.14-10.16-23-26.52-32.59-49.09l-45.71-107.5,59.25,43.17h-348.74l60.1-43.17-45.71,107.5c-10.16,22.58-20.61,38.94-31.32,49.09-10.73,10.16-27.09,15.24-49.09,15.24ZM2506.13,376.94l-98.19,234.47-23.7-40.63h246.32l-23.7,40.63-99.04-234.47h-1.69Z"/>
    <path class="cls-4" d="M2948.82,818.8c-24.84,0-44.02-6.92-57.56-20.74-13.54-13.82-20.32-33.14-20.32-57.98v-446.93c0-25.39,6.9-44.86,20.74-58.41,13.82-13.54,33.14-20.32,57.98-20.32h208.23c67.72,0,120.05,16.51,157.02,49.52,36.95,33.01,55.44,78.87,55.44,137.55,0,37.81-8.33,70.68-24.97,98.61-16.65,27.93-40.63,49.39-71.95,64.33-31.32,14.96-69.83,22.43-115.54,22.43l6.77-15.24h40.63c24.26,0,45.71,5.79,64.33,17.35,18.62,11.57,34.14,29.2,46.56,52.9l42.32,76.18c9.02,16.37,13.25,32.31,12.7,47.83-.57,15.53-6.64,28.22-18.2,38.09-11.57,9.87-28.36,14.81-50.37,14.81s-39.93-4.52-53.75-13.54c-13.83-9.02-26.11-23.13-36.82-42.32l-77.03-141.36c-6.77-12.41-15.38-21.02-25.82-25.82-10.45-4.79-22.43-7.19-35.97-7.19h-46.56v151.52c0,24.84-6.49,44.16-19.47,57.98-12.99,13.82-32.46,20.74-58.41,20.74ZM3026.7,478.52h103.27c29.9,0,52.76-5.92,68.56-17.78,15.79-11.85,23.7-30.18,23.7-55.02s-7.91-41.61-23.7-53.75c-15.8-12.13-38.66-18.2-68.56-18.2h-103.27v144.75Z"/>
    <path class="cls-4" d="M3471.09,818.8c-17.5,0-32.17-4.1-44.02-12.27s-19.19-19.47-22.01-33.86c-2.83-14.39-.29-30.6,7.62-48.67l210.77-453.71c10.16-22.01,22.71-38.09,37.67-48.25,14.95-10.16,32.02-15.24,51.21-15.24s35.98,5.08,50.37,15.24c14.39,10.16,26.94,26.24,37.67,48.25l210.77,453.71c9.02,18.07,12.27,34.43,9.73,49.09-2.54,14.68-9.6,25.96-21.16,33.86-11.57,7.9-25.82,11.85-42.75,11.85-22.58,0-39.93-5.08-52.06-15.24-12.14-10.16-23-26.52-32.59-49.09l-45.71-107.5,59.25,43.17h-348.74l60.1-43.17-45.71,107.5c-10.16,22.58-20.61,38.94-31.32,49.09-10.73,10.16-27.09,15.24-49.09,15.24ZM3710.64,376.94l-98.19,234.47-23.7-40.63h246.32l-23.7,40.63-99.04-234.47h-1.69Z"/>
  </g>
  <g>
    <path class="cls-2" d="M4436.91,697.62c-16.05,0-28.25-4.18-36.61-12.54-8.37-8.36-12.54-20.39-12.54-36.1v-263.68c0-15.7,4.18-27.73,12.54-36.1,8.36-8.36,20.56-12.54,36.61-12.54h173.57c12.29,0,21.5,3.07,27.65,9.22,6.14,6.14,9.22,15.02,9.22,26.62s-3.07,21.08-9.22,27.39c-6.14,6.32-15.36,9.47-27.65,9.47h-132.61v68.61h121.34c11.95,0,21.07,3.07,27.39,9.22,6.31,6.14,9.47,15.19,9.47,27.14s-3.16,20.99-9.47,27.14c-6.32,6.14-15.45,9.22-27.39,9.22h-121.34v74.24h132.61c12.29,0,21.5,3.16,27.65,9.47,6.14,6.32,9.22,15.28,9.22,26.88s-3.07,20.99-9.22,27.14c-6.14,6.14-15.36,9.22-27.65,9.22h-173.57Z"/>
    <path class="cls-2" d="M4728.23,697.62c-16.05,0-28.25-4.18-36.61-12.54-8.37-8.36-12.54-20.39-12.54-36.1v-263.68c0-15.7,4.18-27.73,12.54-36.1,8.36-8.36,20.56-12.54,36.61-12.54h100.35c62.8,0,111.36,15.7,145.66,47.1,34.3,31.41,51.46,75.78,51.46,133.12,0,28.67-4.44,54.19-13.31,76.54-8.88,22.36-21.68,41.3-38.4,56.83-16.73,15.54-37.3,27.31-61.7,35.33-24.41,8.02-52.31,12.03-83.71,12.03h-100.35ZM4773.29,621.33h49.15c18.09,0,33.7-2.22,46.85-6.66,13.14-4.43,24.06-10.92,32.77-19.46,8.7-8.53,15.18-19.28,19.46-32.26,4.26-12.97,6.4-28.33,6.4-46.08,0-35.5-8.7-61.7-26.11-78.59s-43.86-25.34-79.36-25.34h-49.15v208.38Z"/>
    <path class="cls-2" d="M5218.22,703.25c-26.29,0-49.5-3.33-69.63-9.98-20.14-6.66-37.12-16.64-50.94-29.95-13.82-13.31-24.24-29.95-31.23-49.92-7-19.97-10.5-43.09-10.5-69.38v-164.35c0-15.7,4.1-27.56,12.29-35.58,8.19-8.02,19.79-12.03,34.82-12.03s27.05,4.02,35.07,12.03c8.02,8.02,12.03,19.89,12.03,35.58v165.38c0,26.29,5.8,46.08,17.41,59.39,11.6,13.31,28.5,19.97,50.69,19.97s38.57-6.66,50.18-19.97c11.6-13.31,17.41-33.1,17.41-59.39v-165.38c0-15.7,4.01-27.56,12.03-35.58,8.02-8.02,19.54-12.03,34.56-12.03s26.45,4.02,34.3,12.03c7.85,8.02,11.78,19.89,11.78,35.58v164.35c0,35.16-6.06,64.6-18.18,88.32-12.12,23.73-30.13,41.47-54.02,53.25-23.9,11.78-53.25,17.66-88.06,17.66Z"/>
    <path class="cls-2" d="M5600.67,703.25c-39.94,0-74.24-7.68-102.91-23.04-28.67-15.36-50.61-37.03-65.79-65.02-15.19-27.98-22.78-60.75-22.78-98.3,0-27.98,4.35-53.42,13.06-76.29,8.7-22.86,21.33-42.5,37.89-58.88,16.55-16.38,36.69-28.93,60.42-37.63,23.72-8.7,50.43-13.06,80.13-13.06,15.7,0,32,1.79,48.9,5.38,16.9,3.58,31.82,8.96,44.8,16.13,9.55,5.12,16.21,11.61,19.97,19.46,3.75,7.86,5.03,15.87,3.84,24.06-1.2,8.19-4.18,15.54-8.96,22.02-4.78,6.49-10.93,10.84-18.43,13.06-7.51,2.22-15.7,1.11-24.58-3.33-10.24-4.78-20.4-8.45-30.46-11.01-10.07-2.56-20.57-3.84-31.49-3.84-21.17,0-38.83,4.02-52.99,12.03-14.17,8.02-24.83,19.71-32,35.07-7.17,15.36-10.75,34.3-10.75,56.83s3.58,41.56,10.75,57.09c7.17,15.54,17.83,27.31,32,35.33,14.16,8.02,31.82,12.03,52.99,12.03,8.87,0,18.43-1.1,28.67-3.33,10.24-2.22,20.3-5.71,30.21-10.5,10.24-4.43,19.37-5.63,27.39-3.58,8.02,2.05,14.5,6.14,19.46,12.29,4.94,6.14,8.1,13.23,9.47,21.25,1.36,8.02.26,15.96-3.33,23.81-3.58,7.86-9.82,14.17-18.69,18.94-11.95,7.17-26.71,12.8-44.29,16.9-17.58,4.1-35.07,6.14-52.48,6.14Z"/>
    <path class="cls-2" d="M5758.37,702.23c-10.58,0-19.46-2.48-26.62-7.42-7.17-4.94-11.61-11.78-13.31-20.48-1.71-8.7-.18-18.51,4.61-29.44l127.49-274.43c6.14-13.31,13.74-23.04,22.78-29.18,9.04-6.14,19.37-9.22,30.98-9.22s21.76,3.07,30.46,9.22,16.3,15.87,22.78,29.18l127.49,274.43c5.46,10.93,7.42,20.82,5.89,29.7-1.54,8.88-5.81,15.7-12.8,20.48-7,4.78-15.62,7.17-25.86,7.17-13.66,0-24.15-3.07-31.49-9.22-7.34-6.14-13.91-16.04-19.71-29.7l-27.65-65.02,35.84,26.11h-210.94l36.35-26.11-27.65,65.02c-6.14,13.66-12.46,23.55-18.94,29.7-6.49,6.14-16.38,9.22-29.7,9.22ZM5903.26,434.96l-59.39,141.82-14.34-24.58h148.99l-14.34,24.58-59.9-141.82h-1.02Z"/>
    <path class="cls-2" d="M6200.73,702.23c-15.02,0-26.62-4.18-34.82-12.54-8.19-8.36-12.29-20.05-12.29-35.07v-241.15h-80.38c-12.63,0-22.27-3.33-28.93-9.98-6.66-6.66-9.98-16.13-9.98-28.42s3.33-22.18,9.98-28.67c6.66-6.48,16.3-9.73,28.93-9.73h254.98c12.62,0,22.27,3.25,28.93,9.73,6.66,6.49,9.98,16.05,9.98,28.67s-3.33,21.76-9.98,28.42c-6.66,6.66-16.3,9.98-28.93,9.98h-80.38v241.15c0,15.02-3.93,26.71-11.78,35.07-7.86,8.36-19.63,12.54-35.33,12.54Z"/>
    <path class="cls-2" d="M6422.42,702.23c-15.02,0-26.62-4.18-34.82-12.54-8.19-8.36-12.29-20.22-12.29-35.58v-273.92c0-15.7,4.1-27.65,12.29-35.84,8.19-8.19,19.79-12.29,34.82-12.29s27.05,4.1,35.07,12.29c8.02,8.19,12.03,20.14,12.03,35.84v273.92c0,15.36-3.93,27.22-11.78,35.58-7.86,8.36-19.63,12.54-35.33,12.54Z"/>
    <path class="cls-2" d="M6686.1,703.25c-36.53,0-68.61-7.76-96.26-23.3-27.65-15.53-49.07-37.29-64.26-65.28-15.19-27.98-22.78-60.58-22.78-97.79,0-27.98,4.35-53.42,13.06-76.29,8.7-22.86,21.16-42.5,37.38-58.88,16.21-16.38,35.58-28.93,58.11-37.63,22.53-8.7,47.44-13.06,74.75-13.06,36.52,0,68.52,7.68,96,23.04,27.47,15.36,48.9,36.95,64.26,64.77,15.36,27.82,23.04,60.5,23.04,98.05,0,27.99-4.35,53.42-13.06,76.29-8.7,22.87-21.17,42.58-37.38,59.14-16.22,16.56-35.58,29.18-58.11,37.89-22.53,8.7-47.45,13.06-74.75,13.06ZM6686.1,624.4c18.09,0,33.45-4.26,46.08-12.8,12.62-8.53,22.35-20.82,29.18-36.86,6.82-16.04,10.24-35.33,10.24-57.86,0-33.79-7.51-60.07-22.53-78.85-15.02-18.77-36.02-28.16-62.98-28.16-17.75,0-33.02,4.18-45.82,12.54-12.8,8.37-22.62,20.48-29.44,36.35-6.83,15.87-10.24,35.25-10.24,58.11,0,33.79,7.5,60.16,22.53,79.1,15.02,18.94,36.01,28.42,62.98,28.42Z"/>
    <path class="cls-2" d="M6946.19,702.23c-14.34,0-25.26-3.76-32.77-11.26-7.51-7.5-11.26-18.6-11.26-33.28v-279.04c0-15.02,3.75-26.54,11.26-34.56,7.5-8.02,17.41-12.03,29.7-12.03,10.92,0,19.46,2.05,25.6,6.14,6.14,4.1,12.97,10.93,20.48,20.48l162.3,202.75h-14.34v-185.34c0-14.34,3.66-25.26,11.01-32.77,7.34-7.5,18.18-11.26,32.51-11.26s25.17,3.76,32.51,11.26c7.34,7.51,11.01,18.43,11.01,32.77v283.65c0,12.98-3.42,23.3-10.24,30.98-6.83,7.68-16.05,11.52-27.65,11.52s-20.74-2.14-27.39-6.4-13.74-11.01-21.25-20.22l-162.3-203.26h14.34v185.34c0,14.68-3.67,25.78-11.01,33.28-7.34,7.5-18.18,11.26-32.51,11.26Z"/>
  </g>
</svg>