<?xml version="1.0" encoding="UTF-8"?>
<svg id="_图层_1" data-name="图层 1" xmlns="http://www.w3.org/2000/svg" xmlns:xlink="http://www.w3.org/1999/xlink" viewBox="0 0 2048.75 2001.99">
  <defs>
    <style>
      .cls-1 {
        fill: #7dc8e5;
      }

      .cls-2 {
        fill: url(#_未命名的渐变_6);
      }

      .cls-3 {
        fill: #7ecae8;
        stroke: #7ecae8;
        stroke-miterlimit: 10;
        stroke-width: .75px;
      }
    </style>
    <linearGradient id="_未命名的渐变_6" data-name="未命名的渐变 6" x1="994.64" y1="631.02" x2="1233.75" y2="870.13" gradientUnits="userSpaceOnUse">
      <stop offset="0" stop-color="#ff7bac"/>
      <stop offset=".22" stop-color="#ff7bac" stop-opacity=".76"/>
      <stop offset=".6" stop-color="#ff7bac" stop-opacity=".36"/>
      <stop offset=".87" stop-color="#ff7bac" stop-opacity=".1"/>
      <stop offset="1" stop-color="#ff7bac" stop-opacity="0"/>
    </linearGradient>
  </defs>
  <g>
    <g>
      <path class="cls-1" d="M1563.51,410.86h183.77c-24.28-62.33-57.91-120.6-99.72-172.8-38.5-48.54-83.8-91.29-134.48-126.93-48.99-34.07-102.69-60.81-159.41-79.35C1297.9,13.47,1239.92,2.78,1181.29,0c82.91,37.02,158.15,89.26,221.81,154,71.09,73.27,125.77,160.82,160.41,256.86Z"/>
      <path class="cls-1" d="M1438.72,1154.55c-80.66,68.26-183.4,104.87-289.05,103-53.15-.31-105.69-11.41-154.43-32.62-52.44-22.45-99.89-55.08-139.61-96.02-43.27-45.13-77.17-98.39-99.72-156.71-27.44-67.24-40.91-139.37-39.6-211.98-.88-64.77,9.03-129.24,29.35-190.75,18.28-54.66,46.11-105.64,82.2-150.58,34.07-42.13,76.14-77.09,123.8-102.86,47.97-25.87,100.43-42.36,154.57-48.58-24.23-14.14-50.19-25.1-77.21-32.62-25.88-7.23-52.62-10.92-79.49-10.97-55.03-.1-109.3,12.79-158.42,37.61-51.07,25.77-96.24,61.86-132.63,105.99-40.24,48.89-71.45,104.56-92.17,164.4-23.92,69.06-35.63,141.75-34.62,214.83-1.6,98.02,15.52,195.45,50.43,287.06,30.6,79.55,76.75,152.19,135.76,213.69,56.5,57.89,124.42,103.4,199.44,133.63,76.37,31.17,158.13,47,240.62,46.58,63.75-.09,127.13-9.7,188.05-28.49,61.05-18.44,118.77-46.53,170.95-83.2,53.34-37.52,100.45-83.19,139.61-135.34,42.51-56.85,76.53-119.57,101-186.2l-152.72-136.9c-28.49,129.92-83.86,228.93-166.11,297.03Z"/>
      <path class="cls-1" d="M598.2,1180.62c-38.83-60.67-68.54-126.72-88.18-196.03-21.72-77.32-32.36-157.32-31.63-237.62-.81-78.44,11.56-156.45,36.61-230.79,22.09-66.43,56.34-128.16,101-182.06,41.29-49.54,92.11-90.28,149.44-119.81,56.35-28.95,118.85-43.9,182.21-43.59,45.87.19,91.26,9.34,133.63,26.93,45.31,18.46,86.91,44.96,122.8,78.21,39.05,36.12,72.13,78.19,98.01,124.65,28.74,51.4,50.09,106.6,63.39,163.97l150.44-136.62c-44.82-123.67-125.03-231.43-230.64-309.85-49.51-36.96-104.24-66.34-162.41-87.19C1066.69,10.52,1007.41.11,947.66.05c-91.62-1.17-182.34,18.31-265.4,56.98-79.33,37.47-149.83,91.31-206.85,157.99-58.72,68.86-104.05,148.1-133.63,233.64-32.13,91.29-48.22,187.44-47.58,284.21-1.96,100.09,15.5,199.6,51.43,293.04,31.19,79.45,77.6,152.04,136.62,213.69,54.84,56.81,120.08,102.57,192.18,134.77,69.42,31.32,143.84,50.09,219.82,55.42-121.74-50.98-225.02-137.91-296.03-249.16Z"/>
    </g>
    <circle class="cls-2" cx="1114.19" cy="750.58" r="169.07"/>
  </g>
  <g>
    <path class="cls-3" d="M201.91,1874.45c-37.43,0-69.58-7.2-96.45-21.59-26.87-14.4-47.43-34.71-61.66-60.94-14.24-26.23-21.35-56.94-21.35-92.13,0-26.23,4.08-50.06,12.24-71.5,8.16-21.43,19.99-39.83,35.51-55.18,15.51-15.36,34.38-27.11,56.62-35.27,22.23-8.16,47.27-12.24,75.1-12.24,14.71,0,29.99,1.68,45.83,5.04,15.84,3.36,29.83,8.4,41.99,15.12,8.95,4.8,15.19,10.88,18.71,18.23,3.52,7.36,4.72,14.88,3.6,22.55-1.12,7.68-3.92,14.56-8.4,20.63-4.48,6.08-10.24,10.16-17.27,12.24-7.04,2.08-14.72,1.04-23.03-3.12-9.6-4.48-19.12-7.92-28.55-10.32-9.44-2.4-19.28-3.6-29.51-3.6-19.84,0-36.39,3.76-49.67,11.28-13.28,7.52-23.27,18.47-29.99,32.87-6.72,14.4-10.08,32.15-10.08,53.26s3.36,38.95,10.08,53.5c6.72,14.56,16.71,25.6,29.99,33.11,13.27,7.52,29.83,11.28,49.67,11.28,8.31,0,17.27-1.03,26.87-3.12,9.6-2.08,19.03-5.35,28.31-9.84,9.6-4.15,18.15-5.28,25.67-3.36,7.51,1.92,13.59,5.76,18.23,11.52,4.63,5.76,7.6,12.4,8.88,19.91,1.27,7.52.24,14.96-3.12,22.31-3.36,7.36-9.2,13.28-17.51,17.75-11.2,6.72-25.04,12-41.51,15.84-16.48,3.84-32.87,5.76-49.19,5.76Z"/>
    <path class="cls-3" d="M471.59,1873.49c-14.08,0-24.95-3.92-32.63-11.76s-11.52-19.11-11.52-33.83v-131.48l18.23,48.47-110.37-158.83c-5.44-7.68-7.76-16.23-6.96-25.67.79-9.43,4.63-17.43,11.52-23.99,6.88-6.55,16.71-9.84,29.51-9.84,8.95,0,17.11,2.16,24.47,6.48,7.36,4.32,14.23,11.6,20.63,21.83l67.18,98.85h-17.27l67.18-99.33c6.72-10.23,13.59-17.43,20.63-21.59,7.03-4.15,15.36-6.24,24.95-6.24,12.15,0,21.59,3.04,28.31,9.12,6.72,6.08,10.32,13.76,10.8,23.03.48,9.28-2.48,18.71-8.88,28.31l-109.41,157.87,17.75-48.47v131.48c0,30.4-14.72,45.59-44.15,45.59Z"/>
    <path class="cls-3" d="M715.35,1873.49c-13.44,0-23.68-3.52-30.71-10.56-7.04-7.03-10.56-17.43-10.56-31.19v-261.52c0-14.07,3.52-24.87,10.56-32.39,7.03-7.51,16.31-11.28,27.83-11.28,10.23,0,18.23,1.92,23.99,5.76s12.15,10.24,19.19,19.19l152.11,190.02h-13.44v-173.71c0-13.44,3.43-23.67,10.32-30.71,6.88-7.03,17.03-10.56,30.47-10.56s23.59,3.52,30.47,10.56c6.88,7.04,10.32,17.28,10.32,30.71v265.84c0,12.16-3.2,21.83-9.6,29.03-6.4,7.2-15.04,10.8-25.91,10.8s-19.43-2-25.67-6c-6.24-4-12.88-10.32-19.91-18.95l-152.11-190.5h13.44v173.71c0,13.76-3.44,24.16-10.32,31.19-6.88,7.03-17.03,10.56-30.47,10.56Z"/>
    <path class="cls-3" d="M1045.97,1873.49c-9.92,0-18.23-2.32-24.95-6.96-6.72-4.63-10.88-11.04-12.48-19.19-1.6-8.16-.17-17.35,4.32-27.59l119.48-257.2c5.76-12.48,12.87-21.59,21.35-27.35,8.47-5.76,18.15-8.64,29.03-8.64s20.39,2.88,28.55,8.64c8.16,5.76,15.27,14.88,21.35,27.35l119.48,257.2c5.11,10.24,6.96,19.52,5.52,27.83-1.44,8.32-5.44,14.72-12,19.19-6.56,4.48-14.64,6.72-24.23,6.72-12.8,0-22.64-2.88-29.51-8.64-6.88-5.76-13.04-15.03-18.47-27.83l-25.91-60.94,33.59,24.47h-197.7l34.07-24.47-25.91,60.94c-5.76,12.8-11.68,22.07-17.75,27.83-6.08,5.76-15.36,8.64-27.83,8.64ZM1181.77,1623l-55.66,132.92-13.44-23.03h139.64l-13.44,23.03-56.14-132.92h-.96Z"/>
    <path class="cls-3" d="M1432.73,1873.49c-14.08,0-24.95-3.92-32.63-11.76s-11.52-18.79-11.52-32.87v-253.36c0-14.4,3.91-25.43,11.76-33.11,7.84-7.68,18.79-11.52,32.87-11.52h118.04c38.39,0,68.06,9.36,89.01,28.07,20.95,18.71,31.43,44.71,31.43,77.98,0,21.44-4.72,40.07-14.16,55.9-9.44,15.83-23.03,28-40.79,36.47-17.75,8.48-39.59,12.72-65.5,12.72l3.84-8.64h23.03c13.75,0,25.91,3.28,36.47,9.84,10.56,6.56,19.35,16.55,26.39,29.99l23.99,43.19c5.11,9.28,7.51,18.32,7.2,27.11-.32,8.8-3.76,16-10.32,21.59-6.56,5.59-16.08,8.4-28.55,8.4s-22.64-2.56-30.47-7.68c-7.84-5.11-14.8-13.11-20.87-23.99l-43.67-80.14c-3.84-7.03-8.72-11.91-14.64-14.64-5.92-2.71-12.72-4.08-20.39-4.08h-26.39v85.89c0,14.08-3.68,25.04-11.04,32.87-7.36,7.83-18.4,11.76-33.11,11.76ZM1476.87,1680.59h58.54c16.95,0,29.91-3.36,38.87-10.08,8.95-6.72,13.44-17.11,13.44-31.19s-4.48-23.59-13.44-30.47c-8.96-6.88-21.92-10.32-38.87-10.32h-58.54v82.06Z"/>
    <path class="cls-3" d="M1728.8,1873.49c-9.92,0-18.23-2.32-24.95-6.96-6.72-4.63-10.88-11.04-12.48-19.19-1.6-8.16-.17-17.35,4.32-27.59l119.48-257.2c5.76-12.48,12.87-21.59,21.35-27.35,8.47-5.76,18.15-8.64,29.03-8.64s20.39,2.88,28.55,8.64c8.16,5.76,15.27,14.88,21.35,27.35l119.48,257.2c5.11,10.24,6.96,19.52,5.52,27.83-1.44,8.32-5.44,14.72-12,19.19-6.56,4.48-14.64,6.72-24.23,6.72-12.8,0-22.64-2.88-29.51-8.64-6.88-5.76-13.04-15.03-18.47-27.83l-25.91-60.94,33.59,24.47h-197.7l34.07-24.47-25.91,60.94c-5.76,12.8-11.68,22.07-17.75,27.83-6.08,5.76-15.36,8.64-27.83,8.64ZM1864.6,1623l-55.66,132.92-13.44-23.03h139.64l-13.44,23.03-56.14-132.92h-.96Z"/>
  </g>
</svg>