<?xml version="1.0" encoding="UTF-8"?>
<svg id="_图层_1" data-name="图层 1" xmlns="http://www.w3.org/2000/svg" xmlns:xlink="http://www.w3.org/1999/xlink" viewBox="0 0 2048.75 1978.9">
  <defs>
    <style>
      .cls-1 {
        fill: #7dc8e5;
      }

      .cls-2 {
        fill: #fff;
      }

      .cls-3 {
        fill: url(#_未命名的渐变_6);
      }

      .cls-4 {
        fill: #7ecae8;
        stroke: #7ecae8;
        stroke-miterlimit: 10;
        stroke-width: .75px;
      }

      .cls-5 {
        fill: url(#_未命名的渐变_2);
      }
    </style>
    <linearGradient id="_未命名的渐变_6" data-name="未命名的渐变 6" x1="994.64" y1="631.02" x2="1233.75" y2="870.13" gradientUnits="userSpaceOnUse">
      <stop offset="0" stop-color="#ff7bac"/>
      <stop offset=".22" stop-color="#ff7bac" stop-opacity=".76"/>
      <stop offset=".6" stop-color="#ff7bac" stop-opacity=".36"/>
      <stop offset=".87" stop-color="#ff7bac" stop-opacity=".1"/>
      <stop offset="1" stop-color="#ff7bac" stop-opacity="0"/>
    </linearGradient>
    <linearGradient id="_未命名的渐变_2" data-name="未命名的渐变 2" x1=".38" y1="1894.99" x2="2047.22" y2="1894.99" gradientUnits="userSpaceOnUse">
      <stop offset="0" stop-color="#94f4e5"/>
      <stop offset=".95" stop-color="#38bef7"/>
    </linearGradient>
  </defs>
  <g>
    <g>
      <path class="cls-1" d="M1563.51,410.86h183.77c-24.28-62.33-57.91-120.6-99.72-172.8-38.5-48.54-83.8-91.29-134.48-126.93-48.99-34.07-102.69-60.81-159.41-79.35C1297.9,13.47,1239.92,2.78,1181.29,0c82.91,37.02,158.15,89.26,221.81,154,71.09,73.27,125.77,160.82,160.41,256.86Z"/>
      <path class="cls-1" d="M1438.72,1154.55c-80.66,68.26-183.4,104.87-289.05,103-53.15-.31-105.69-11.41-154.43-32.62-52.44-22.45-99.89-55.08-139.61-96.02-43.27-45.13-77.17-98.39-99.72-156.71-27.44-67.24-40.91-139.37-39.6-211.98-.88-64.77,9.03-129.24,29.35-190.75,18.28-54.66,46.11-105.64,82.2-150.58,34.07-42.13,76.14-77.09,123.8-102.86,47.97-25.87,100.43-42.36,154.57-48.58-24.23-14.14-50.19-25.1-77.21-32.62-25.88-7.23-52.62-10.92-79.49-10.97-55.03-.1-109.3,12.79-158.42,37.61-51.07,25.77-96.24,61.86-132.63,105.99-40.24,48.89-71.45,104.56-92.17,164.4-23.92,69.06-35.63,141.75-34.62,214.83-1.6,98.02,15.52,195.45,50.43,287.06,30.6,79.55,76.75,152.19,135.76,213.69,56.5,57.89,124.42,103.4,199.44,133.63,76.37,31.17,158.13,47,240.62,46.58,63.75-.09,127.13-9.7,188.05-28.49,61.05-18.44,118.77-46.53,170.95-83.2,53.34-37.52,100.45-83.19,139.61-135.34,42.51-56.85,76.53-119.57,101-186.2l-152.72-136.9c-28.49,129.92-83.86,228.93-166.11,297.03Z"/>
      <path class="cls-1" d="M598.2,1180.62c-38.83-60.67-68.54-126.72-88.18-196.03-21.72-77.32-32.36-157.32-31.63-237.62-.81-78.44,11.56-156.45,36.61-230.79,22.09-66.43,56.34-128.16,101-182.06,41.29-49.54,92.11-90.28,149.44-119.81,56.35-28.95,118.85-43.9,182.21-43.59,45.87.19,91.26,9.34,133.63,26.93,45.31,18.46,86.91,44.96,122.8,78.21,39.05,36.12,72.13,78.19,98.01,124.65,28.74,51.4,50.09,106.6,63.39,163.97l150.44-136.62c-44.82-123.67-125.03-231.43-230.64-309.85-49.51-36.96-104.24-66.34-162.41-87.19C1066.69,10.52,1007.41.11,947.66.05c-91.62-1.17-182.34,18.31-265.4,56.98-79.33,37.47-149.83,91.31-206.85,157.99-58.72,68.86-104.05,148.1-133.63,233.64-32.13,91.29-48.22,187.44-47.58,284.21-1.96,100.09,15.5,199.6,51.43,293.04,31.19,79.45,77.6,152.04,136.62,213.69,54.84,56.81,120.08,102.57,192.18,134.77,69.42,31.32,143.84,50.09,219.82,55.42-121.74-50.98-225.02-137.91-296.03-249.16Z"/>
    </g>
    <circle class="cls-3" cx="1114.19" cy="750.58" r="169.07"/>
  </g>
  <g>
    <path class="cls-4" d="M201.91,1802.45c-37.43,0-69.58-7.2-96.45-21.59-26.87-14.4-47.43-34.71-61.66-60.94-14.24-26.23-21.35-56.94-21.35-92.13,0-26.23,4.08-50.06,12.24-71.5,8.16-21.43,19.99-39.83,35.51-55.18,15.51-15.36,34.38-27.11,56.62-35.27,22.23-8.16,47.27-12.24,75.1-12.24,14.71,0,29.99,1.68,45.83,5.04,15.84,3.36,29.83,8.4,41.99,15.12,8.95,4.8,15.19,10.88,18.71,18.23,3.52,7.36,4.72,14.88,3.6,22.55-1.12,7.68-3.92,14.56-8.4,20.63-4.48,6.08-10.24,10.16-17.27,12.24-7.04,2.08-14.72,1.04-23.03-3.12-9.6-4.48-19.12-7.92-28.55-10.32-9.44-2.4-19.28-3.6-29.51-3.6-19.84,0-36.39,3.76-49.67,11.28-13.28,7.52-23.27,18.47-29.99,32.87-6.72,14.4-10.08,32.15-10.08,53.26s3.36,38.95,10.08,53.5c6.72,14.56,16.71,25.6,29.99,33.11,13.27,7.52,29.83,11.28,49.67,11.28,8.31,0,17.27-1.03,26.87-3.12,9.6-2.08,19.03-5.35,28.31-9.84,9.6-4.15,18.15-5.28,25.67-3.36,7.51,1.92,13.59,5.76,18.23,11.52,4.63,5.76,7.6,12.4,8.88,19.91,1.27,7.52.24,14.96-3.12,22.31-3.36,7.36-9.2,13.28-17.51,17.75-11.2,6.72-25.04,12-41.51,15.84-16.48,3.84-32.87,5.76-49.19,5.76Z"/>
    <path class="cls-4" d="M471.59,1801.49c-14.08,0-24.95-3.92-32.63-11.76s-11.52-19.11-11.52-33.83v-131.48l18.23,48.47-110.37-158.83c-5.44-7.68-7.76-16.23-6.96-25.67.79-9.43,4.63-17.43,11.52-23.99,6.88-6.55,16.71-9.84,29.51-9.84,8.95,0,17.11,2.16,24.47,6.48,7.36,4.32,14.23,11.6,20.63,21.83l67.18,98.85h-17.27l67.18-99.33c6.72-10.23,13.59-17.43,20.63-21.59,7.03-4.15,15.36-6.24,24.95-6.24,12.15,0,21.59,3.04,28.31,9.12,6.72,6.08,10.32,13.76,10.8,23.03.48,9.28-2.48,18.71-8.88,28.31l-109.41,157.87,17.75-48.47v131.48c0,30.4-14.72,45.59-44.15,45.59Z"/>
    <path class="cls-4" d="M715.35,1801.49c-13.44,0-23.68-3.52-30.71-10.56-7.04-7.03-10.56-17.43-10.56-31.19v-261.52c0-14.07,3.52-24.87,10.56-32.39,7.03-7.51,16.31-11.28,27.83-11.28,10.23,0,18.23,1.92,23.99,5.76s12.15,10.24,19.19,19.19l152.11,190.02h-13.44v-173.71c0-13.44,3.43-23.67,10.32-30.71,6.88-7.03,17.03-10.56,30.47-10.56s23.59,3.52,30.47,10.56c6.88,7.04,10.32,17.28,10.32,30.71v265.84c0,12.16-3.2,21.83-9.6,29.03-6.4,7.2-15.04,10.8-25.91,10.8s-19.43-2-25.67-6c-6.24-4-12.88-10.32-19.91-18.95l-152.11-190.5h13.44v173.71c0,13.76-3.44,24.16-10.32,31.19-6.88,7.03-17.03,10.56-30.47,10.56Z"/>
    <path class="cls-4" d="M1045.97,1801.49c-9.92,0-18.23-2.32-24.95-6.96-6.72-4.63-10.88-11.04-12.48-19.19-1.6-8.16-.17-17.35,4.32-27.59l119.48-257.2c5.76-12.48,12.87-21.59,21.35-27.35,8.47-5.76,18.15-8.64,29.03-8.64s20.39,2.88,28.55,8.64c8.16,5.76,15.27,14.88,21.35,27.35l119.48,257.2c5.11,10.24,6.96,19.52,5.52,27.83-1.44,8.32-5.44,14.72-12,19.19-6.56,4.48-14.64,6.72-24.23,6.72-12.8,0-22.64-2.88-29.51-8.64-6.88-5.76-13.04-15.03-18.47-27.83l-25.91-60.94,33.59,24.47h-197.7l34.07-24.47-25.91,60.94c-5.76,12.8-11.68,22.07-17.75,27.83-6.08,5.76-15.36,8.64-27.83,8.64ZM1181.77,1551l-55.66,132.92-13.44-23.03h139.64l-13.44,23.03-56.14-132.92h-.96Z"/>
    <path class="cls-4" d="M1432.73,1801.49c-14.08,0-24.95-3.92-32.63-11.76s-11.52-18.79-11.52-32.87v-253.36c0-14.4,3.91-25.43,11.76-33.11,7.84-7.68,18.79-11.52,32.87-11.52h118.04c38.39,0,68.06,9.36,89.01,28.07,20.95,18.71,31.43,44.71,31.43,77.98,0,21.44-4.72,40.07-14.16,55.9-9.44,15.83-23.03,28-40.79,36.47-17.75,8.48-39.59,12.72-65.5,12.72l3.84-8.64h23.03c13.75,0,25.91,3.28,36.47,9.84,10.56,6.56,19.35,16.55,26.39,29.99l23.99,43.19c5.11,9.28,7.51,18.32,7.2,27.11-.32,8.8-3.76,16-10.32,21.59-6.56,5.59-16.08,8.4-28.55,8.4s-22.64-2.56-30.47-7.68c-7.84-5.11-14.8-13.11-20.87-23.99l-43.67-80.14c-3.84-7.03-8.72-11.91-14.64-14.64-5.92-2.71-12.72-4.08-20.39-4.08h-26.39v85.89c0,14.08-3.68,25.04-11.04,32.87-7.36,7.83-18.4,11.76-33.11,11.76ZM1476.87,1608.59h58.54c16.95,0,29.91-3.36,38.87-10.08,8.95-6.72,13.44-17.11,13.44-31.19s-4.48-23.59-13.44-30.47c-8.96-6.88-21.92-10.32-38.87-10.32h-58.54v82.06Z"/>
    <path class="cls-4" d="M1728.8,1801.49c-9.92,0-18.23-2.32-24.95-6.96-6.72-4.63-10.88-11.04-12.48-19.19-1.6-8.16-.17-17.35,4.32-27.59l119.48-257.2c5.76-12.48,12.87-21.59,21.35-27.35,8.47-5.76,18.15-8.64,29.03-8.64s20.39,2.88,28.55,8.64c8.16,5.76,15.27,14.88,21.35,27.35l119.48,257.2c5.11,10.24,6.96,19.52,5.52,27.83-1.44,8.32-5.44,14.72-12,19.19-6.56,4.48-14.64,6.72-24.23,6.72-12.8,0-22.64-2.88-29.51-8.64-6.88-5.76-13.04-15.03-18.47-27.83l-25.91-60.94,33.59,24.47h-197.7l34.07-24.47-25.91,60.94c-5.76,12.8-11.68,22.07-17.75,27.83-6.08,5.76-15.36,8.64-27.83,8.64ZM1864.6,1551l-55.66,132.92-13.44-23.03h139.64l-13.44,23.03-56.14-132.92h-.96Z"/>
  </g>
  <path class="cls-5" d="M2047.22,1821.88v92.68c0,35.53-136.04,64.34-303.85,64.34H24.38c-13.26,0-24.01-4.83-24.01-10.8v-92.68c0-35.53,136.04-64.34,303.85-64.34h1718.98c13.26,0,24.01,4.83,24.01,10.8Z"/>
  <g>
    <path class="cls-2" d="M314.16,1939.44c-3.94,0-6.94-1.07-8.99-3.23-2.06-2.15-3.08-5.24-3.08-9.28v-67.8c0-4.04,1.03-7.13,3.08-9.28,2.05-2.15,5.05-3.22,8.99-3.22h42.63c3.02,0,5.28.79,6.79,2.37,1.51,1.58,2.26,3.86,2.26,6.85s-.75,5.42-2.26,7.04c-1.51,1.62-3.77,2.44-6.79,2.44h-32.57v17.64h29.81c2.93,0,5.18.79,6.73,2.37,1.55,1.58,2.33,3.91,2.33,6.98s-.78,5.4-2.33,6.98c-1.55,1.58-3.79,2.37-6.73,2.37h-29.81v19.09h32.57c3.02,0,5.28.81,6.79,2.44,1.51,1.62,2.26,3.93,2.26,6.91s-.75,5.4-2.26,6.98c-1.51,1.58-3.77,2.37-6.79,2.37h-42.63Z"/>
    <path class="cls-2" d="M479.54,1939.44c-3.94,0-6.94-1.07-8.99-3.23-2.06-2.15-3.08-5.24-3.08-9.28v-67.8c0-4.04,1.03-7.13,3.08-9.28,2.05-2.15,5.05-3.22,8.99-3.22h24.65c15.43,0,27.35,4.04,35.78,12.11,8.43,8.08,12.64,19.48,12.64,34.23,0,7.37-1.09,13.93-3.27,19.68-2.18,5.75-5.33,10.62-9.43,14.61-4.11,4-9.16,7.02-15.15,9.08-6,2.06-12.85,3.09-20.56,3.09h-24.65ZM490.61,1919.83h12.07c4.44,0,8.28-.57,11.51-1.71,3.23-1.14,5.91-2.81,8.05-5,2.14-2.19,3.73-4.96,4.78-8.29,1.05-3.33,1.57-7.28,1.57-11.85,0-9.13-2.14-15.86-6.41-20.21s-10.77-6.52-19.49-6.52h-12.07v53.58Z"/>
    <path class="cls-2" d="M693.72,1940.89c-6.46,0-12.16-.86-17.1-2.57-4.95-1.71-9.12-4.28-12.51-7.7-3.4-3.42-5.95-7.7-7.67-12.84-1.72-5.13-2.58-11.08-2.58-17.84v-42.26c0-4.04,1.01-7.09,3.02-9.15,2.01-2.06,4.86-3.09,8.55-3.09s6.64,1.03,8.61,3.09c1.97,2.06,2.96,5.11,2.96,9.15v42.52c0,6.76,1.42,11.85,4.28,15.27,2.85,3.42,7,5.13,12.45,5.13s9.47-1.71,12.32-5.13c2.85-3.42,4.28-8.51,4.28-15.27v-42.52c0-4.04.98-7.09,2.96-9.15,1.97-2.06,4.8-3.09,8.49-3.09s6.5,1.03,8.43,3.09c1.93,2.06,2.89,5.11,2.89,9.15v42.26c0,9.04-1.49,16.61-4.46,22.71-2.98,6.1-7.4,10.66-13.27,13.69-5.87,3.03-13.08,4.54-21.63,4.54Z"/>
    <path class="cls-2" d="M881.48,1940.89c-9.81,0-18.24-1.97-25.28-5.92-7.04-3.95-12.43-9.52-16.16-16.72-3.73-7.2-5.6-15.62-5.6-25.28,0-7.2,1.07-13.73,3.21-19.62,2.14-5.88,5.24-10.93,9.31-15.14,4.07-4.21,9.01-7.44,14.84-9.68,5.83-2.24,12.39-3.36,19.68-3.36,3.86,0,7.86.46,12.01,1.38,4.15.92,7.82,2.3,11,4.15,2.35,1.32,3.98,2.98,4.9,5,.92,2.02,1.24,4.08.94,6.19-.29,2.11-1.03,4-2.2,5.66-1.17,1.67-2.68,2.79-4.53,3.36-1.85.57-3.86.29-6.04-.86-2.52-1.23-5.01-2.17-7.48-2.83-2.47-.66-5.05-.99-7.73-.99-5.2,0-9.54,1.03-13.02,3.09-3.48,2.06-6.1,5.07-7.86,9.02s-2.64,8.82-2.64,14.61.88,10.69,2.64,14.68c1.76,4,4.38,7.02,7.86,9.08,3.48,2.06,7.82,3.09,13.02,3.09,2.18,0,4.53-.28,7.04-.86,2.52-.57,4.99-1.47,7.42-2.7,2.52-1.14,4.76-1.45,6.73-.92,1.97.53,3.56,1.58,4.78,3.16,1.21,1.58,1.99,3.4,2.33,5.46.33,2.06.06,4.1-.82,6.12-.88,2.02-2.41,3.64-4.59,4.87-2.94,1.84-6.56,3.29-10.88,4.34-4.32,1.05-8.61,1.58-12.89,1.58Z"/>
    <path class="cls-2" d="M1014.04,1940.63c-2.6,0-4.78-.64-6.54-1.91-1.76-1.27-2.85-3.03-3.27-5.27-.42-2.24-.04-4.76,1.13-7.57l31.32-70.56c1.51-3.42,3.37-5.92,5.6-7.5,2.22-1.58,4.76-2.37,7.61-2.37s5.34.79,7.48,2.37,4,4.08,5.6,7.5l31.32,70.56c1.34,2.81,1.82,5.35,1.45,7.64-.38,2.28-1.43,4.04-3.14,5.27-1.72,1.23-3.84,1.84-6.35,1.84-3.35,0-5.93-.79-7.74-2.37-1.8-1.58-3.42-4.12-4.84-7.64l-6.79-16.72,8.8,6.71h-51.81l8.93-6.71-6.79,16.72c-1.51,3.51-3.06,6.06-4.65,7.64-1.59,1.58-4.02,2.37-7.29,2.37ZM1049.63,1871.91l-14.59,36.47-3.52-6.32h36.6l-3.52,6.32-14.71-36.47h-.25Z"/>
    <path class="cls-2" d="M1216.51,1940.63c-3.69,0-6.54-1.08-8.55-3.23-2.01-2.15-3.02-5.15-3.02-9.02v-62.01h-19.75c-3.1,0-5.47-.86-7.11-2.57-1.63-1.71-2.45-4.15-2.45-7.31s.82-5.7,2.45-7.37c1.63-1.67,4-2.5,7.11-2.5h62.63c3.1,0,5.47.83,7.11,2.5,1.63,1.67,2.45,4.13,2.45,7.37s-.82,5.6-2.45,7.31c-1.64,1.71-4,2.57-7.11,2.57h-19.74v62.01c0,3.86-.96,6.87-2.89,9.02-1.93,2.15-4.82,3.23-8.68,3.23Z"/>
    <path class="cls-2" d="M1364.79,1940.63c-3.69,0-6.54-1.08-8.55-3.23-2.01-2.15-3.02-5.2-3.02-9.15v-70.43c0-4.04,1.01-7.11,3.02-9.21,2.01-2.11,4.86-3.16,8.55-3.16s6.64,1.05,8.62,3.16c1.97,2.11,2.96,5.18,2.96,9.21v70.43c0,3.95-.96,7-2.89,9.15-1.93,2.15-4.82,3.23-8.68,3.23Z"/>
    <path class="cls-2" d="M1523.38,1940.89c-8.97,0-16.85-2-23.64-5.99-6.79-3.99-12.05-9.59-15.78-16.79-3.73-7.2-5.6-15.58-5.6-25.14,0-7.2,1.07-13.73,3.21-19.62,2.14-5.88,5.2-10.93,9.18-15.14,3.98-4.21,8.74-7.44,14.27-9.68,5.53-2.24,11.65-3.36,18.36-3.36,8.97,0,16.83,1.97,23.58,5.92,6.75,3.95,12.01,9.5,15.78,16.65,3.77,7.15,5.66,15.56,5.66,25.21,0,7.2-1.07,13.74-3.21,19.62-2.14,5.88-5.2,10.95-9.18,15.21-3.98,4.26-8.74,7.5-14.27,9.74-5.53,2.24-11.65,3.36-18.36,3.36ZM1523.38,1920.62c4.44,0,8.22-1.1,11.32-3.29,3.1-2.19,5.49-5.35,7.17-9.48,1.68-4.12,2.51-9.08,2.51-14.88,0-8.69-1.84-15.45-5.53-20.27-3.69-4.83-8.85-7.24-15.47-7.24-4.36,0-8.11,1.08-11.26,3.23-3.14,2.15-5.56,5.27-7.23,9.35-1.68,4.08-2.52,9.06-2.52,14.94,0,8.69,1.84,15.47,5.53,20.34,3.69,4.87,8.84,7.31,15.47,7.31Z"/>
    <path class="cls-2" d="M1681.08,1940.63c-3.52,0-6.21-.97-8.05-2.9-1.84-1.93-2.77-4.78-2.77-8.56v-71.75c0-3.86.92-6.82,2.77-8.89,1.84-2.06,4.28-3.09,7.29-3.09,2.68,0,4.78.53,6.29,1.58,1.51,1.05,3.18,2.81,5.03,5.27l39.87,52.13h-3.52v-47.66c0-3.69.9-6.49,2.7-8.43,1.8-1.93,4.46-2.9,7.99-2.9s6.18.97,7.99,2.9c1.8,1.93,2.7,4.74,2.7,8.43v72.93c0,3.34-.84,5.99-2.52,7.96-1.68,1.97-3.94,2.96-6.79,2.96s-5.09-.55-6.73-1.65-3.38-2.83-5.22-5.2l-39.87-52.26h3.52v47.66c0,3.77-.9,6.63-2.7,8.56-1.8,1.93-4.46,2.9-7.99,2.9Z"/>
  </g>
</svg>