<?xml version="1.0" encoding="utf-8"?>
<!-- Generator: Adobe Illustrator 22.0.0, SVG Export Plug-In . SVG Version: 6.00 Build 0)  -->
<svg version="1.1" id="参考线" xmlns="http://www.w3.org/2000/svg" xmlns:xlink="http://www.w3.org/1999/xlink" x="0px" y="0px"
	 viewBox="0 0 595.3 841.9" style="enable-background:new 0 0 595.3 841.9;" xml:space="preserve">
<style type="text/css">
	.st0{fill:#19264B;}
	.st1{opacity:0.8;fill:#20A6CA;enable-background:new    ;}
	.st2{opacity:0.5;fill:#20A6CA;enable-background:new    ;}
	.st3{fill:none;stroke:#000000;stroke-width:3;stroke-miterlimit:10;}
</style>
<g>
	<g>
		<g>
			<path class="st0" d="M80.7,325.6L7.6,306.3v232.2l73.1-19.3l27.8-7.4V333L80.7,325.6z"/>
			<path class="st1" d="M153.7,325.6l-73.1-19.3v232.2l73.1-19.3l27.8-7.4V333L153.7,325.6z"/>
			<path class="st2" d="M153.7,306.3v232.2l100.8-26.7V333L153.7,306.3z"/>
		</g>
	</g>
</g>
<g>
	<g>
		<path d="M273.4,440c-0.9,0-1.6-0.3-2.3-0.9c-0.6-0.6-0.9-1.4-0.9-2.3V380c0-0.9,0.3-1.6,0.9-2.3s1.4-0.9,2.3-0.9h36.9
			c0.8,0,1.5,0.3,2.1,0.9l13.1,12.4c0.7,0.6,1,1.3,1,2.3v32.5c0,0.9-0.3,1.7-1,2.3l-13.1,12.1c-0.6,0.6-1.3,0.9-2.1,0.9H273.4z
			 M276.5,433.8h32.6l11.1-10.4v-29.8L309,383h-32.5V433.8z"/>
		<path d="M371.8,417.4H337v22.2H331v-59.4c0-0.9,0.3-1.6,0.9-2.2c0.6-0.6,1.3-0.9,2.2-0.9h49.7c0.9,0,1.6,0.3,2.2,0.9
			c0.6,0.6,0.9,1.3,0.9,2.2v34.2c0,0.8-0.3,1.5-0.9,2.1c-0.6,0.6-1.3,0.9-2.2,0.9h-5.2l8.6,20.8l-5.7,2.3L371.8,417.4z M337,411.3
			h43.5v-28H337V411.3z"/>
		<path d="M397.9,411.6v22.2h49v6.2h-52.2c-0.8,0-1.5-0.3-2.1-0.9s-0.9-1.3-0.9-2.1v-56.8c0-0.9,0.3-1.6,0.9-2.2
			c0.6-0.6,1.3-0.9,2.1-0.9H447v6.2h-49v22.3h47.2v6.2H397.9z"/>
		<path d="M506.3,416.6h-41.9l-6.9,24.2l-5.9-1.7l17-59.9c0.2-0.7,0.6-1.2,1.1-1.6c0.5-0.4,1.1-0.6,1.9-0.6h27.6
			c0.7,0,1.3,0.2,1.9,0.6c0.5,0.4,0.9,0.9,1.1,1.6l17,59.9l-5.9,1.7L506.3,416.6z M473.9,383.2l-7.7,27.2h38.3l-7.7-27.2H473.9z"/>
		<path d="M583,391.1L564,438c-0.2,0.6-0.6,1.1-1.1,1.4c-0.5,0.4-1.1,0.6-1.8,0.6c-0.6,0-1.2-0.2-1.8-0.6c-0.5-0.4-0.9-0.9-1.1-1.4
			l-19-46.9l-9.6,49l-6-1.1l11.5-59.9c0.2-0.7,0.5-1.3,1-1.7c0.5-0.4,1.1-0.7,1.8-0.8c0.7-0.1,1.4,0,1.9,0.4c0.6,0.4,1,0.9,1.2,1.6
			l20,49.8l20-49.8c0.3-0.7,0.7-1.2,1.2-1.5c0.6-0.3,1.2-0.5,1.9-0.4c0.7,0.1,1.3,0.3,1.8,0.7c0.5,0.4,0.8,1,1,1.8l11.5,59.9l-6,1.1
			L583,391.1z"/>
		<path d="M618.8,439.5h-6.1v-62h6.1V439.5z"/>
		<path d="M635.8,440.1c-0.9,0-1.6-0.3-2.2-0.9c-0.6-0.6-0.9-1.3-0.9-2.2v-59.2h6.1v56.2H684v6.2H635.8z"/>
		<path d="M724.7,439.7h-6.2V412l-29.9-32.2l4.4-4.2l28.5,30.8l28.6-30.8l4.4,4.2L724.7,412V439.7z"/>
	</g>
	<g>
		<path d="M372.1,471.4H359v-25.2h2.8v22.7h10.4V471.4z"/>
		<path d="M375,458.3c-0.2-8.4,2.6-12.6,8.4-12.6c5.6,0,8.3,4.2,8.3,12.6c0.1,9.2-2.7,13.7-8.4,13.5
			C377.6,472,374.8,467.5,375,458.3z M388.8,458.3c0-6.7-1.8-10.1-5.5-10.1c-3.7,0-5.5,3.4-5.4,10.1c-0.3,7.9,1.4,11.6,5.4,11.1
			C387.1,470,388.9,466.3,388.8,458.3z"/>
		<path d="M402.8,469.4l5.9-23.2h3.1l-7.3,25.2h-3.4l-7.2-25.2h3L402.8,469.4z"/>
		<path d="M427.2,471.4h-12.6v-25.2h12.6v2.5h-9.8v8.4h9.2v2.5h-9.2v9.3h9.8V471.4z"/>
		<path d="M454.2,453.8h-2.8c-0.2-3.8-1.7-5.6-4.6-5.6c-3.4,0-5,3.4-4.8,10.2c-0.4,7.3,1.3,11,4.8,11c2.5,0.1,4-1.7,4.3-5.4
			c0-0.2,0-0.4,0-0.8c0.1-0.3,0.2-0.7,0.3-0.9h2.8c-0.2,0.3-0.2,0.8-0.1,1.4c-0.1,0.4-0.1,0.7-0.1,0.9c-0.2,2-0.7,3.5-1.4,4.5
			c-1.3,1.7-3.1,2.6-5.4,2.6c-5.8,0.2-8.4-4.2-8-13.2c-0.2-8.6,2.4-12.8,7.9-12.8C451.6,446,454,448.7,454.2,453.8z"/>
		<path d="M461.3,471.4h-2.8v-25.2h2.8v10.5h9.7v-10.5h2.8v25.2H471v-12.2h-9.7V471.4z"/>
		<path d="M476.7,471.4l7.2-25.2h3.7l7.1,25.2h-3.1l-2-7.2h-8l-1.8,7.2H476.7z M488.9,461.7l-3.3-13.5l-3.3,13.5H488.9z"/>
		<path d="M510,466.8v-20.6h2.9v25.2h-4.6l-7.1-20.2c-0.4-1-0.7-2.2-0.9-3.8h-0.1c0,0.5,0,1.1,0,1.7c0.1,0.5,0.1,1.3,0.1,2.2v20.1
			h-2.8v-25.2h4.5l7.2,20.6c0.3,1,0.5,2,0.8,2.8h0.1c0-0.3,0-0.7-0.1-1.3C509.9,467.7,509.9,467.2,510,466.8z"/>
		<path d="M533.2,458.4v13h-2.1v-3.7H531c-0.8,2.6-2.7,4-5.8,4.1c-5.7,0.1-8.3-4.3-8-13.1c-0.1-8.7,2.7-13,8.3-13
			c4.9,0.3,7.4,2.9,7.5,7.9h-2.8c-0.1-3.4-1.6-5.2-4.6-5.4c-4-0.1-5.9,3.4-5.5,10.5c-0.4,7.3,1.2,10.8,4.7,10.7
			c3.9,0.3,5.8-2.4,5.6-8.4h-5.6v-2.6H533.2z"/>
		<path d="M550.9,471.4h-12.6v-25.2h12.6v2.5h-9.8v8.4h9.2v2.5h-9.2v9.3h9.8V471.4z"/>
		<path d="M574.1,454.4l-3.7,17h-3.5l-5.4-25.2h3.1l3.3,17.3c0.3,2.1,0.5,4.1,0.8,5.9c0-0.3,0-0.9,0.1-1.7c0.2-1.7,0.4-3,0.7-3.9
			l3.7-17.6h3.5l3.3,17.3c0.3,2.2,0.5,4.2,0.8,5.9c0.3-1.9,0.5-3.8,0.8-5.6l3.7-17.6h3.1l-5.9,25.2H579l-3.3-17
			c-0.3-1-0.5-2.7-0.8-5.2c0-0.3,0-0.7,0-0.9C574.6,450,574.4,452.1,574.1,454.4z"/>
		<path d="M590.9,458.3c-0.2-8.4,2.6-12.6,8.4-12.6c5.6,0,8.3,4.2,8.3,12.6c0.1,9.2-2.7,13.7-8.4,13.5
			C593.5,472,590.7,467.5,590.9,458.3z M604.6,458.3c0-6.7-1.8-10.1-5.5-10.1c-3.7,0-5.5,3.4-5.4,10.1c-0.3,7.9,1.4,11.6,5.4,11.1
			C603,470,604.8,466.3,604.6,458.3z"/>
		<path d="M615,460.4v11h-2.8v-25.2h6.4c5.9-0.2,8.8,2.2,8.5,7.2c-0.3,3.1-1.9,4.9-4.8,5.5c2.8,0,4.3,1.6,4.5,4.7
			c0.1,1.8,0.3,3.7,0.5,5.6c0,0.1,0,0.2,0,0.3c0.3,1,0.6,1.4,1,1.3v0.5h-3.3c-0.3-0.6-0.5-1.5-0.7-2.6c-0.2-1.3-0.3-2.6-0.3-3.8
			c-0.1-3-1.5-4.5-4.3-4.6H615z M615,448.7v9h4.5c3.1,0.1,4.8-1.4,4.8-4.6c-0.1-3.1-1.9-4.5-5.4-4.5H615z"/>
		<path d="M645.7,471.4h-13.1v-25.2h2.8v22.7h10.4V471.4z"/>
		<path d="M656.8,471.4h-7.5v-25.2h6.9c6.2,0,9.1,4.2,8.7,12.6C664.9,467.2,662.1,471.4,656.8,471.4z M652.1,448.7v20.2h4.5
			c4,0.3,5.9-3.3,5.5-10.6c0.1-6.6-1.7-9.7-5.5-9.6H652.1z"/>
	</g>
	<line class="st3" x1="271.8" y1="457.3" x2="346.2" y2="457.3"/>
	<line class="st3" x1="677.5" y1="457.3" x2="751.9" y2="457.3"/>
</g>
</svg>
