<svg width="279" height="57" viewBox="0 0 279 57" fill="none" xmlns="http://www.w3.org/2000/svg">
<rect x="141" width="138" height="57" rx="5" fill="#F1A9B4"/>
<path d="M0.519886 5.45454H9.04261L23.8608 41.6364H24.4062L39.2244 5.45454H47.7472V52H41.0653V18.3182H40.6335L26.9062 51.9318H21.3608L7.63352 18.2955H7.2017V52H0.519886V5.45454ZM98.3892 28.7273C98.3892 33.697 97.4801 37.9697 95.6619 41.5455C93.8438 45.1061 91.3513 47.8485 88.1847 49.7727C85.0331 51.6818 81.4498 52.6364 77.4347 52.6364C73.4044 52.6364 69.8059 51.6818 66.6392 49.7727C63.4877 47.8485 61.0028 45.0985 59.1847 41.5227C57.3665 37.947 56.4574 33.6818 56.4574 28.7273C56.4574 23.7576 57.3665 19.4924 59.1847 15.9318C61.0028 12.3561 63.4877 9.61363 66.6392 7.70454C69.8059 5.7803 73.4044 4.81818 77.4347 4.81818C81.4498 4.81818 85.0331 5.7803 88.1847 7.70454C91.3513 9.61363 93.8438 12.3561 95.6619 15.9318C97.4801 19.4924 98.3892 23.7576 98.3892 28.7273ZM91.4347 28.7273C91.4347 24.9394 90.821 21.75 89.5938 19.1591C88.3816 16.553 86.715 14.5833 84.5938 13.25C82.4877 11.9015 80.1013 11.2273 77.4347 11.2273C74.7528 11.2273 72.3589 11.9015 70.2528 13.25C68.1468 14.5833 66.4801 16.553 65.2528 19.1591C64.0407 21.75 63.4347 24.9394 63.4347 28.7273C63.4347 32.5152 64.0407 35.7121 65.2528 38.3182C66.4801 40.9091 68.1468 42.8788 70.2528 44.2273C72.3589 45.5606 74.7528 46.2273 77.4347 46.2273C80.1013 46.2273 82.4877 45.5606 84.5938 44.2273C86.715 42.8788 88.3816 40.9091 89.5938 38.3182C90.821 35.7121 91.4347 32.5152 91.4347 28.7273ZM107.145 52V5.45454H136.327V11.5H114.168V25.6818H134.804V31.7045H114.168V45.9545H136.599V52H107.145Z" fill="#F1A9B4"/>
<path d="M153.145 52V5.45454H170.19C173.493 5.45454 176.228 6 178.395 7.09091C180.562 8.16667 182.183 9.62879 183.259 11.4773C184.334 13.3106 184.872 15.3788 184.872 17.6818C184.872 19.6212 184.516 21.2576 183.804 22.5909C183.092 23.9091 182.137 24.9697 180.94 25.7727C179.759 26.5606 178.455 27.1364 177.031 27.5V27.9545C178.577 28.0303 180.084 28.5303 181.554 29.4545C183.039 30.3636 184.266 31.6591 185.236 33.3409C186.205 35.0227 186.69 37.0682 186.69 39.4773C186.69 41.8561 186.13 43.9924 185.009 45.8864C183.902 47.7652 182.19 49.2576 179.872 50.3636C177.554 51.4545 174.592 52 170.986 52H153.145ZM160.168 45.9773H170.304C173.668 45.9773 176.077 45.3258 177.531 44.0227C178.986 42.7197 179.713 41.0909 179.713 39.1364C179.713 37.6667 179.342 36.3182 178.599 35.0909C177.857 33.8636 176.796 32.8864 175.418 32.1591C174.054 31.4318 172.433 31.0682 170.554 31.0682H160.168V45.9773ZM160.168 25.5909H169.577C171.152 25.5909 172.569 25.2879 173.827 24.6818C175.099 24.0758 176.107 23.2273 176.849 22.1364C177.607 21.0303 177.986 19.7273 177.986 18.2273C177.986 16.303 177.312 14.6894 175.963 13.3864C174.615 12.0833 172.546 11.4318 169.759 11.4318H160.168V25.5909ZM195.02 52V5.45454H212.065C215.368 5.45454 218.103 6 220.27 7.09091C222.437 8.16667 224.058 9.62879 225.134 11.4773C226.209 13.3106 226.747 15.3788 226.747 17.6818C226.747 19.6212 226.391 21.2576 225.679 22.5909C224.967 23.9091 224.012 24.9697 222.815 25.7727C221.634 26.5606 220.33 27.1364 218.906 27.5V27.9545C220.452 28.0303 221.959 28.5303 223.429 29.4545C224.914 30.3636 226.141 31.6591 227.111 33.3409C228.08 35.0227 228.565 37.0682 228.565 39.4773C228.565 41.8561 228.005 43.9924 226.884 45.8864C225.777 47.7652 224.065 49.2576 221.747 50.3636C219.429 51.4545 216.467 52 212.861 52H195.02ZM202.043 45.9773H212.179C215.543 45.9773 217.952 45.3258 219.406 44.0227C220.861 42.7197 221.588 41.0909 221.588 39.1364C221.588 37.6667 221.217 36.3182 220.474 35.0909C219.732 33.8636 218.671 32.8864 217.293 32.1591C215.929 31.4318 214.308 31.0682 212.429 31.0682H202.043V45.9773ZM202.043 25.5909H211.452C213.027 25.5909 214.444 25.2879 215.702 24.6818C216.974 24.0758 217.982 23.2273 218.724 22.1364C219.482 21.0303 219.861 19.7273 219.861 18.2273C219.861 16.303 219.187 14.6894 217.838 13.3864C216.49 12.0833 214.421 11.4318 211.634 11.4318H202.043V25.5909ZM262.281 17.6818C262.039 15.5303 261.039 13.8636 259.281 12.6818C257.524 11.4848 255.312 10.8864 252.645 10.8864C250.736 10.8864 249.084 11.1894 247.69 11.7955C246.296 12.3864 245.213 13.2045 244.44 14.25C243.683 15.2803 243.304 16.4545 243.304 17.7727C243.304 18.8788 243.562 19.8333 244.077 20.6364C244.607 21.4394 245.296 22.1136 246.145 22.6591C247.009 23.1894 247.933 23.6364 248.918 24C249.902 24.3485 250.849 24.6364 251.759 24.8636L256.304 26.0455C257.789 26.4091 259.312 26.9015 260.872 27.5227C262.433 28.1439 263.88 28.9621 265.213 29.9773C266.546 30.9924 267.622 32.25 268.44 33.75C269.274 35.25 269.69 37.0455 269.69 39.1364C269.69 41.7727 269.009 44.1136 267.645 46.1591C266.296 48.2045 264.334 49.8182 261.759 51C259.198 52.1818 256.099 52.7727 252.463 52.7727C248.978 52.7727 245.963 52.2197 243.418 51.1136C240.872 50.0076 238.88 48.4394 237.44 46.4091C236.001 44.3636 235.205 41.9394 235.054 39.1364H242.099C242.236 40.8182 242.781 42.2197 243.736 43.3409C244.705 44.447 245.94 45.2727 247.44 45.8182C248.955 46.3485 250.615 46.6136 252.418 46.6136C254.402 46.6136 256.168 46.303 257.713 45.6818C259.274 45.0455 260.501 44.1667 261.395 43.0455C262.289 41.9091 262.736 40.5833 262.736 39.0682C262.736 37.6894 262.342 36.5606 261.554 35.6818C260.781 34.803 259.728 34.0758 258.395 33.5C257.077 32.9242 255.584 32.4167 253.918 31.9773L248.418 30.4773C244.69 29.4621 241.736 27.9697 239.554 26C237.387 24.0303 236.304 21.4242 236.304 18.1818C236.304 15.5 237.031 13.1591 238.486 11.1591C239.94 9.15909 241.91 7.60606 244.395 6.5C246.88 5.37879 249.683 4.81818 252.804 4.81818C255.955 4.81818 258.736 5.37121 261.145 6.47727C263.569 7.58333 265.478 9.10606 266.872 11.0455C268.266 12.9697 268.993 15.1818 269.054 17.6818H262.281Z" fill="white"/>
</svg>
