<svg width="512" height="512" viewBox="0 0 512 512" fill="none" xmlns="http://www.w3.org/2000/svg">
<rect width="512" height="512" rx="31" fill="#F1A9B4"/>
<path d="M80.734 180.545H107.368L153.674 293.614H155.379L201.686 180.545H228.319V326H207.439V220.744H206.089L163.191 325.787H145.862L102.964 220.673H101.615V326H80.734V180.545Z" fill="white"/>
<path d="M343.606 271.455C343.606 283.102 341.475 293.116 337.214 301.497C332.952 309.842 327.111 316.27 319.689 320.78C312.302 325.254 303.904 327.491 294.493 327.491C285.047 327.491 276.613 325.254 269.191 320.78C261.805 316.27 255.981 309.825 251.72 301.444C247.459 293.063 245.328 283.067 245.328 271.455C245.328 259.807 247.459 249.81 251.72 241.465C255.981 233.085 261.805 226.657 269.191 222.183C276.613 217.673 285.047 215.418 294.493 215.418C303.904 215.418 312.302 217.673 319.689 222.183C327.111 226.657 332.952 233.085 337.214 241.465C341.475 249.81 343.606 259.807 343.606 271.455ZM327.306 271.455C327.306 262.577 325.868 255.102 322.991 249.029C320.15 242.921 316.244 238.305 311.272 235.18C306.336 232.019 300.743 230.439 294.493 230.439C288.208 230.439 282.597 232.019 277.661 235.18C272.725 238.305 268.819 242.921 265.942 249.029C263.101 255.102 261.681 262.577 261.681 271.455C261.681 280.332 263.101 287.825 265.942 293.933C268.819 300.006 272.725 304.622 277.661 307.783C282.597 310.908 288.208 312.47 294.493 312.47C300.743 312.47 306.336 310.908 311.272 307.783C316.244 304.622 320.15 300.006 322.991 293.933C325.868 287.825 327.306 280.332 327.306 271.455Z" fill="white"/>
<path d="M360.795 326V216.909H429.19V231.078H377.254V264.317H425.621V278.433H377.254V311.831H429.829V326H360.795Z" fill="white"/>
<path d="M258 161C258 159.343 259.343 158 261 158H424C425.657 158 427 159.343 427 161V201C427 202.657 425.657 204 424 204H261C259.343 204 258 202.657 258 201V161Z" fill="#FF8099"/>
<path d="M298.691 200V163.636H312.008C314.589 163.636 316.725 164.062 318.418 164.915C320.111 165.755 321.377 166.897 322.218 168.342C323.058 169.774 323.478 171.39 323.478 173.189C323.478 174.704 323.2 175.982 322.644 177.024C322.087 178.054 321.342 178.883 320.407 179.51C319.483 180.125 318.465 180.575 317.353 180.859V181.214C318.56 181.274 319.738 181.664 320.886 182.386C322.046 183.097 323.005 184.109 323.762 185.423C324.52 186.737 324.899 188.335 324.899 190.217C324.899 192.075 324.461 193.744 323.585 195.224C322.721 196.692 321.383 197.857 319.572 198.722C317.761 199.574 315.447 200 312.63 200H298.691ZM304.178 195.295H312.097C314.725 195.295 316.607 194.786 317.743 193.768C318.88 192.75 319.448 191.477 319.448 189.95C319.448 188.802 319.158 187.749 318.578 186.79C317.998 185.831 317.169 185.067 316.092 184.499C315.027 183.931 313.76 183.647 312.292 183.647H304.178V195.295ZM304.178 179.368H311.529C312.76 179.368 313.867 179.131 314.849 178.658C315.843 178.184 316.63 177.521 317.21 176.669C317.802 175.805 318.098 174.787 318.098 173.615C318.098 172.112 317.572 170.851 316.518 169.833C315.465 168.815 313.849 168.306 311.671 168.306H304.178V179.368ZM334.406 200V163.636H347.723C350.303 163.636 352.44 164.062 354.133 164.915C355.825 165.755 357.092 166.897 357.932 168.342C358.773 169.774 359.193 171.39 359.193 173.189C359.193 174.704 358.915 175.982 358.359 177.024C357.802 178.054 357.056 178.883 356.121 179.51C355.198 180.125 354.18 180.575 353.067 180.859V181.214C354.275 181.274 355.453 181.664 356.601 182.386C357.761 183.097 358.72 184.109 359.477 185.423C360.235 186.737 360.614 188.335 360.614 190.217C360.614 192.075 360.176 193.744 359.3 195.224C358.436 196.692 357.098 197.857 355.287 198.722C353.476 199.574 351.162 200 348.344 200H334.406ZM339.893 195.295H347.812C350.44 195.295 352.322 194.786 353.458 193.768C354.594 192.75 355.163 191.477 355.163 189.95C355.163 188.802 354.873 187.749 354.293 186.79C353.713 185.831 352.884 185.067 351.807 184.499C350.741 183.931 349.475 183.647 348.007 183.647H339.893V195.295ZM339.893 179.368H347.244C348.475 179.368 349.581 179.131 350.564 178.658C351.558 178.184 352.345 177.521 352.925 176.669C353.517 175.805 353.813 174.787 353.813 173.615C353.813 172.112 353.286 170.851 352.233 169.833C351.179 168.815 349.564 168.306 347.386 168.306H339.893V179.368ZM389.954 173.189C389.765 171.508 388.983 170.206 387.61 169.283C386.237 168.348 384.509 167.88 382.426 167.88C380.934 167.88 379.644 168.117 378.555 168.59C377.466 169.052 376.62 169.691 376.016 170.508C375.424 171.313 375.128 172.23 375.128 173.26C375.128 174.124 375.329 174.87 375.732 175.497C376.146 176.125 376.685 176.651 377.348 177.077C378.022 177.492 378.744 177.841 379.514 178.125C380.283 178.397 381.023 178.622 381.733 178.8L385.284 179.723C386.444 180.007 387.634 180.392 388.853 180.877C390.072 181.362 391.203 182.002 392.245 182.795C393.286 183.588 394.127 184.57 394.766 185.742C395.417 186.914 395.742 188.317 395.742 189.95C395.742 192.01 395.21 193.839 394.144 195.437C393.091 197.035 391.558 198.295 389.546 199.219C387.545 200.142 385.125 200.604 382.284 200.604C379.561 200.604 377.206 200.172 375.217 199.308C373.228 198.443 371.672 197.218 370.547 195.632C369.423 194.034 368.801 192.14 368.683 189.95H374.187C374.294 191.264 374.72 192.359 375.465 193.235C376.223 194.099 377.188 194.744 378.36 195.17C379.543 195.585 380.84 195.792 382.248 195.792C383.799 195.792 385.178 195.549 386.385 195.064C387.604 194.567 388.563 193.88 389.262 193.004C389.96 192.116 390.309 191.081 390.309 189.897C390.309 188.82 390.001 187.938 389.386 187.251C388.782 186.565 387.96 185.997 386.918 185.547C385.888 185.097 384.722 184.701 383.42 184.357L379.123 183.185C376.211 182.392 373.903 181.226 372.198 179.688C370.506 178.149 369.659 176.113 369.659 173.58C369.659 171.484 370.228 169.656 371.364 168.093C372.5 166.531 374.039 165.317 375.98 164.453C377.922 163.577 380.112 163.139 382.55 163.139C385.012 163.139 387.184 163.571 389.066 164.435C390.96 165.299 392.452 166.489 393.541 168.004C394.63 169.508 395.198 171.236 395.245 173.189H389.954Z" fill="white"/>
</svg>
